# xmcd CD database file
#
# Track frame offsets:
#	150
#	31264
#	50393
#	77163
#	110332
#	143157
#	166343
#	182627
#	196579
#	207941
#	240303
#	270764
#	293839
#	336751
#
# Disc length: 4678 seconds
#
# Revision: 0
# Processed by: cddbd v1.5.2PL0 Copyright (c) Steve Scherf et al.
# Submitted via: CDex 1.70beta2
#
DISCID=b412440e
DTITLE=Miles Davis - The Unissued1956-57 Paris Broadcasts
DYEAR=1957
DGENRE=Jazz
TTITLE0=Bags' Groove (Live 30-11-1957 Olympia, Paris)
TTITLE1=Tune Up (Live 30-11-1957 Olympia, Paris)
TTITLE2=Four (Live 30-11-1957 Olympia, Paris)
TTITLE3=Walkin' (Live 30-11-1957 Olympia, Paris)
TTITLE4=No Moe (Live 30-11-1957 Olympia, Paris)
TTITLE5='Round Midnight (Live 30-11-1957 Olympia, Paris)
TTITLE6=Lady Bird (Live 7-12-1957 ORTF Studios, Paris)
TTITLE7=Four (Live 7-12-1957 ORTF Studios, Paris)
TTITLE8=What's New (Live 7-12-1957 ORTF Studios, Paris)
TTITLE9=Lady Be Good (Live 2-11-1956 ORTF Studios, Paris)
TTITLE10=Dear Old Stockholm (Live 20-7-1957 Cafe Bohemia, New York)
TTITLE11=Bags' Groove - S'Posin' (Live 20-7-1957 Cafe Bohemia, New York)
TTITLE12=Bye Bye, Blackbird (Live 27-7-1957 Cafe Bohemia, New York)
TTITLE13=Tune Up (Live 27-7-1957 Cafe Bohemia, New York)
EXTD=YEAR: 1957
EXTT0=
EXTT1=
EXTT2=
EXTT3=
EXTT4=
EXTT5=
EXTT6=
EXTT7=
EXTT8=
EXTT9=
EXTT10=
EXTT11=
EXTT12=
EXTT13=
PLAYORDER=
